<?xml version="1.0" encoding="UTF-8"?>
<svg id="Layer_1" data-name="Layer 1" xmlns="http://www.w3.org/2000/svg" viewBox="0 0 5286.77 2399.6">
  <defs>
    <style>
      .cls-1 {
        letter-spacing: 0em;
      }

      .cls-2 {
        font-family: DegularVar-TextBold, 'Degular Variable';
        font-variation-settings: 'opsz' 6, 'wght' 700, 'ital' 0;
        font-weight: 700;
      }

      .cls-2, .cls-3 {
        font-size: 155.33px;
      }

      .cls-4 {
        letter-spacing: 0em;
      }

      .cls-5 {
        letter-spacing: 0em;
      }

      .cls-3 {
        font-family: CircularStd-Black, 'Circular Std';
        font-weight: 800;
      }

      .cls-6 {
        letter-spacing: .03em;
      }

      .cls-7 {
        letter-spacing: .02em;
      }

      .cls-8 {
        letter-spacing: -.03em;
      }
    </style>
  </defs>
  <g>
    <path d="M474.55,536.4h31.04c3.31,0,5.99-2.68,5.99-5.99v-31.27s-74.09,0-74.09,0l37.06,37.25Z"/>
    <path d="M402.23,464.22h110.06s0-31.27,0-31.27c0-3.31-2.68-5.99-5.99-5.99h-141.14s37.06,37.25,37.06,37.25Z"/>
    <polygon points="328.11 389.72 289.88 389.72 289.88 426.97 365.17 426.97 328.11 389.72"/>
    <polygon points="400.42 461.9 303.09 461.9 314.42 499.15 437.48 499.15 400.42 461.9"/>
    <path d="M417,640.36l-39.38.07c-2.38,0-4.54-1.4-5.49-3.58l-104.7-239.03c-1.74-3.97,1.19-8.42,5.53-8.39l30.61.25,113.44,250.68Z"/>
  </g>
  <text class="cls-3" transform="translate(555.98 640.43)"><tspan class="cls-8" x="0" y="0">F</tspan><tspan x="83.41" y="0">o</tspan><tspan class="cls-7" x="175.05" y="0">r</tspan><tspan class="cls-5" x="240.91" y="0">t</tspan><tspan x="301.02" y="0">i</tspan><tspan class="cls-6" x="345.28" y="0">f</tspan><tspan x="406.17" y="0">y</tspan></text>
  <text class="cls-3" transform="translate(1916.71 623.56)"><tspan class="cls-8" x="0" y="0">F</tspan><tspan x="83.41" y="0">o</tspan><tspan class="cls-7" x="175.05" y="0">r</tspan><tspan class="cls-5" x="240.91" y="0">t</tspan><tspan x="301.02" y="0">i</tspan><tspan class="cls-6" x="345.28" y="0">f</tspan><tspan x="406.17" y="0">y</tspan></text>
  <text class="cls-3" transform="translate(3113.95 657.82)"><tspan class="cls-8" x="0" y="0">F</tspan><tspan x="83.41" y="0">o</tspan><tspan class="cls-7" x="175.05" y="0">r</tspan><tspan class="cls-5" x="240.91" y="0">t</tspan><tspan x="301.02" y="0">i</tspan><tspan class="cls-6" x="345.28" y="0">f</tspan><tspan x="406.17" y="0">y</tspan></text>
  <text class="cls-3" transform="translate(3182.13 1240.1)"><tspan class="cls-8" x="0" y="0">F</tspan><tspan x="83.41" y="0">o</tspan><tspan class="cls-7" x="175.05" y="0">r</tspan><tspan class="cls-5" x="240.91" y="0">t</tspan><tspan x="301.02" y="0">i</tspan><tspan class="cls-6" x="345.28" y="0">f</tspan><tspan x="406.17" y="0">y</tspan></text>
  <g>
    <path d="M4366.9,1238.13v-110.12h70.98v23.3h-46.44v23.3h40.85v22.37h-40.69v41.16h-24.7Z"/>
    <path d="M4525.17,1199.45c0,23.92-17.86,41-41,41s-41-17.08-41-41,18.02-40.85,41-40.85,41,16.93,41,40.85ZM4501.56,1199.45c0-13.05-8.39-19.1-17.4-19.1s-17.4,6.06-17.4,19.1,8.54,19.26,17.4,19.26,17.4-6.21,17.4-19.26Z"/>
    <path d="M4589.47,1184.23c-2.64-.62-5.13-.78-7.46-.78-9.47,0-18.02,5.59-18.02,20.97v33.7h-23.61v-77.19h22.83v10.41c4.04-8.7,13.82-11.18,20.04-11.18,2.33,0,4.66.31,6.21.78v23.3Z"/>
    <path d="M4634.52,1160.93h15.07v23.66h-15.07v25.89c0,6.37,3.42,8.08,8.54,8.08,2.49,0,4.82-.47,6.21-.78v19.57c-.93.47-4.81,2.17-12.27,2.17-16,0-25.78-9.47-25.78-24.85,0-.95,0-8.55,0-16.4,0-4.29,13.07-13.68,13.07-13.68h-26.74v-23.66h3.88c8.08,0,11.96-5.44,11.96-12.58v-9.94h21.12v22.52Z"/>
    <path d="M4678.01,1123.5c7.77,0,13.98,6.21,13.98,13.82s-6.21,13.82-13.98,13.82-13.67-6.21-13.67-13.82,6.21-13.82,13.67-13.82ZM4666.36,1238.13v-77.19h23.61v77.19h-23.61Z"/>
    <path d="M4737.8,1184.81v53.31h-23.61v-40.85c0-3.41,6.31-12.46,13.51-12.46h-25.78v-23.88h12.27v-6.68c0-17.71,10.72-29.82,29.51-29.82,4.82,0,9.01.62,11.18,1.71v19.26c-1.24-.31-3.26-.78-6.99-.78-4.19,0-10.1,1.86-10.1,10.41v5.9h16.77v23.88h-16.77Z"/>
    <path d="M4776.94,1267.79l17.55-40.07-32.46-66.79h26.4l18.79,41.32,17.08-41.32h25.01l-47.53,106.86h-24.85Z"/>
  </g>
  <g>
    <path d="M4360.22,944.82v-110.12h70.98v23.3h-46.44v23.3h40.85v22.37h-40.69v41.16h-24.7Z"/>
    <path d="M4518.49,906.15c0,23.92-17.86,41-41,41s-41-17.08-41-41,18.02-40.85,41-40.85,41,16.93,41,40.85ZM4494.88,906.15c0-13.05-8.39-19.1-17.4-19.1s-17.4,6.06-17.4,19.1,8.54,19.26,17.4,19.26,17.4-6.21,17.4-19.26Z"/>
    <path d="M4582.8,890.93c-2.64-.62-5.13-.78-7.46-.78-9.47,0-18.02,5.59-18.02,20.97v33.7h-23.61v-77.19h22.83v10.41c4.04-8.7,13.82-11.18,20.04-11.18,2.33,0,4.66.31,6.21.78v23.3Z"/>
    <path d="M4627.84,867.63h15.07v23.66h-15.07v25.89c0,6.37,3.42,8.08,8.54,8.08,2.49,0,4.82-.47,6.21-.78v19.57c-.93.47-4.81,2.17-12.27,2.17-16,0-25.78-9.47-25.78-24.85,0-.95,0-8.55,0-16.4,0-4.29,13.07-13.68,13.07-13.68h-26.74v-23.66h3.88c8.08,0,11.96-5.44,11.96-12.58v-9.94h21.12v22.52Z"/>
    <path d="M4671.33,830.2c7.77,0,13.98,6.21,13.98,13.82s-6.21,13.82-13.98,13.82-13.67-6.21-13.67-13.82,6.21-13.82,13.67-13.82ZM4659.68,944.82v-77.19h23.61v77.19h-23.61Z"/>
    <path d="M4731.13,891.51v53.31h-23.61v-40.85c0-3.41,6.31-12.46,13.51-12.46h-25.78v-23.88h12.27v-6.68c0-17.71,10.72-29.82,29.51-29.82,4.82,0,9.01.62,11.18,1.71v19.26c-1.24-.31-3.26-.78-6.99-.78-4.19,0-10.1,1.86-10.1,10.41v5.9h16.77v23.88h-16.77Z"/>
    <path d="M4770.27,974.49l17.55-40.07-32.46-66.79h26.4l18.79,41.32,17.08-41.32h25.01l-47.53,106.86h-24.85Z"/>
  </g>
  <text class="cls-3" transform="translate(3196.44 1838.76)"><tspan class="cls-8" x="0" y="0">F</tspan><tspan x="83.41" y="0">o</tspan><tspan class="cls-7" x="175.05" y="0">r</tspan><tspan class="cls-5" x="240.91" y="0">t</tspan><tspan x="301.02" y="0">i</tspan><tspan class="cls-6" x="345.28" y="0">f</tspan><tspan x="406.17" y="0">y</tspan></text>
  <text class="cls-3" transform="translate(4366.9 1729.43)"><tspan class="cls-8" x="0" y="0">F</tspan><tspan x="83.41" y="0">o</tspan><tspan class="cls-7" x="175.05" y="0">r</tspan><tspan class="cls-5" x="240.91" y="0">t</tspan><tspan x="301.02" y="0">i</tspan><tspan class="cls-1" x="345.28" y="0">z</tspan><tspan x="422.01" y="0">y</tspan></text>
  <g>
    <path d="M4378.86,2011.39v-110.12h70.98v23.3h-46.44v23.3h40.85v22.37h-40.69v41.16h-24.7Z"/>
    <path d="M4537.13,1970.39c0,23.92-17.86,41-41,41s-41-17.08-41-41,18.02-40.85,41-40.85,41,16.93,41,40.85ZM4513.52,1970.39c0-13.05-8.39-19.1-17.4-19.1s-17.4,6.06-17.4,19.1,8.54,19.26,17.4,19.26,17.4-6.21,17.4-19.26Z"/>
    <path d="M4601.43,1957.5c-2.64-.62-5.13-.78-7.46-.78-9.47,0-18.02,5.59-18.02,20.97v33.7h-23.61v-77.19h22.83v10.41c4.04-8.7,13.82-11.18,20.04-11.18,2.33,0,4.66.31,6.21.78v23.3Z"/>
    <path d="M4689.97,1896.77c7.77,0,13.98,6.21,13.98,13.82s-6.21,13.82-13.98,13.82-13.67-6.21-13.67-13.82,6.21-13.82,13.67-13.82ZM4678.32,2011.39v-77.19h23.61v77.19h-23.61Z"/>
    <path d="M4717.77,2011.39v-20.81l34.01-36.19h-33.08v-20.19h63.21v19.42l-35.57,37.43h36.19v20.35h-64.77Z"/>
    <path d="M4804.75,2041.06l17.55-40.07-32.46-66.79h26.4l18.79,41.31,17.08-41.31h25.01l-47.53,106.86h-24.85Z"/>
    <path d="M4649.76,1932.8h15.07v24.66h-15.07v24.89c0,6.37,3.42,8.08,8.54,8.08,2.49,0,4.82-.47,6.21-.78v19.57c-.93.47-4.81,2.17-12.27,2.17-16,0-25.78-9.47-25.78-24.85,0-.95,0-8.55,0-16.4,0-4.29,13.07-12.68,13.07-12.68h-26.74v-24.66h3.88c8.08,0,11.96-5.44,11.96-12.58v-9.94h21.12v22.52Z"/>
  </g>
  <text class="cls-2" transform="translate(555.98 1884.59)"><tspan class="cls-4" x="0" y="0">F</tspan><tspan x="82.48" y="0">ortizy</tspan></text>
  <g>
    <path d="M475.9,1142.5h31.04c3.31,0,5.99-2.68,5.99-5.99v-31.27s-74.09,0-74.09,0l37.06,37.25Z"/>
    <path d="M403.59,1070.32h110.06s0-31.27,0-31.27c0-3.31-2.68-5.99-5.99-5.99h-141.14s37.06,37.25,37.06,37.25Z"/>
    <polygon points="329.46 995.82 291.24 995.82 291.24 1033.07 366.53 1033.07 329.46 995.82"/>
    <polygon points="401.78 1068 304.45 1068 315.77 1105.25 438.84 1105.25 401.78 1068"/>
    <path d="M418.36,1246.46l-39.38.07c-2.38,0-4.54-1.4-5.49-3.58l-104.7-239.03c-1.74-3.97,1.19-8.42,5.53-8.39l30.61.25,113.44,250.68Z"/>
  </g>
  <g>
    <path d="M475.9,1780.56h31.04c3.31,0,5.99-2.68,5.99-5.99v-31.27s-74.09,0-74.09,0l37.06,37.25Z"/>
    <path d="M403.59,1708.38h110.06s0-31.27,0-31.27c0-3.31-2.68-5.99-5.99-5.99h-141.14s37.06,37.25,37.06,37.25Z"/>
    <polygon points="329.46 1633.88 291.24 1633.88 291.24 1671.13 366.53 1671.13 329.46 1633.88"/>
    <polygon points="401.78 1706.06 304.45 1706.06 315.77 1743.31 438.84 1743.31 401.78 1706.06"/>
    <path d="M418.36,1884.52l-39.38.07c-2.38,0-4.54-1.4-5.49-3.58l-104.7-239.03c-1.74-3.97,1.19-8.42,5.53-8.39l30.61.25,113.44,250.68Z"/>
  </g>
  <path d="M567.94,1248.83v-110.12h70.98v23.3h-46.44v23.3h40.85v22.37h-40.69v41.16h-24.7Z"/>
  <path d="M723.82,1210.15c0,23.92-17.86,41-41,41s-41-17.09-41-41,18.02-40.85,41-40.85,41,16.93,41,40.85ZM700.22,1210.15c0-13.05-8.39-19.1-17.4-19.1s-17.4,6.06-17.4,19.1,8.54,19.26,17.4,19.26,17.4-6.21,17.4-19.26Z"/>
  <path d="M778.57,1194.93c-2.64-.62-5.13-.78-7.46-.78-9.47,0-18.02,5.59-18.02,20.97v33.7h-23.61v-77.19h22.83v10.41c4.04-8.7,13.82-11.18,20.04-11.18,2.33,0,4.66.31,6.21.78v23.3Z"/>
  <path d="M823.61,1175.13h15.07v20.66h-15.07v23.89c0,6.37,3.42,8.08,8.54,8.08,2.49,0,4.82-.47,6.21-.78v19.57c-.93.47-4.81,2.17-12.27,2.17-16,0-25.78-9.47-25.78-24.85v-28.08h-13.67v-20.66h3.88c8.08,0,11.96-5.44,11.96-12.58v-9.94h21.12v22.52Z"/>
  <path d="M860.43,1134.2c7.77,0,13.98,6.21,13.98,13.82s-6.21,13.82-13.98,13.82-13.67-6.21-13.67-13.82,6.21-13.82,13.67-13.82ZM848.78,1248.83v-77.19h23.61v77.19h-23.61Z"/>
  <path d="M915.05,1195.01v53.31h-23.61v-53.31h-12.27v-19.88h12.27v-6.68c0-17.71,10.72-29.82,29.51-29.82,4.82,0,9.01.62,11.18,1.71v19.26c-1.24-.31-3.26-.78-6.99-.78-4.19,0-10.1,1.86-10.1,10.41v5.9h16.77v19.88h-16.77Z"/>
  <path d="M954.19,1278.49l17.55-40.07-32.46-66.79h26.4l18.79,41.31,17.08-41.31h25.01l-47.53,106.86h-24.85Z"/>
  <path d="M2929.94,1021.07v27.99h44v-28h19v-46.57h2.04l35.96,14.59v2.23l-30,13.26v16.5h20v28h45v-28h45v63.5l-34.1,33.92,34.1,205.58h-227l34.91-205.58c-.22-3.69-30.57-28.84-34.91-33.92v-63.49h46Z"/>
  <path d="M1908.76,1915.97l-184.28,106.16c-62.55-33.74-123.51-70.39-185.01-105.97l-.34-214.84,184.41-105.15,184.42,105.51,1.02,1.98-.22,212.3ZM1777.97,1727.18h58.5l26.48-15.52-.47-2.48-138.94-78.99-140.08,79.99c-.92,1.17,3,2.65,3.85,3.17,3.04,1.87,22.77,13.84,24.16,13.84h57.5v48.5l1.5,1.5h14.5v-50h77v48.5l1.5,1.5h14.5v-50ZM1567.97,1736.18v144l24.35-12.9.49-116.44-24.84-14.66ZM1878.97,1880.18v-144c-6.49,4.9-17.28,8.39-23.4,13.1-.89.68-1.6,1.11-1.61,2.39l.17,115.35,24.84,13.16ZM1639.97,1757.18h-17v110l39.5,21.92,61.92-33.91,60.07,33.92,40.51-23.43v-108.5h-18v49h-74v-49h-18v49h-75v-49ZM1754.97,1907.16l-31.43-17.98-31.57,17.98,32.51,17.97,30.48-17.97ZM1636.61,1908.55c-9.32-5.54-18.73-11.02-28.3-16.15l-25.33,14.75,139.06,80.5,2.35.54c39.28-22.8,79.27-44.55,118.26-67.85,7.31-4.37,14.6-8.47,21.31-13.67.04-1.35-20.92-13.18-23.05-14-1.07-.41-1.84-.72-2.94-.1l-27.37,15.76-3.2,2.31-83.76,48.32-82.31-46.63c-2.01-.22-3.83-3.26-4.7-3.78Z"/>
  <g>
    <path d="M3000.25,1905.66l-86.02-43.45c-6.74-3.4-10.98-10.31-10.98-17.85v-86.03c0-25.22,20.45-45.67,45.67-45.67h46.33l-3.08,8.45-15.82,79.01,24.4,34.54,22.48-34.54-17.59-85.39,1.12-2.06h89l1.5,1.5v130.2c0,7.55-4.25,14.45-10.98,17.85l-86.02,43.45"/>
    <path d="M2921.26,1585.11v49h37v-57.38c0-4.02,2.4-7.64,6.1-9.21l31.95-13.54c2.52-1.07,5.37-1.06,7.88.03l31.05,13.47c3.65,1.59,6.02,5.19,6.02,9.17v57.44h37v-49h0c25.96,0,47,21.04,47,47v51h-100.94v-14.56h-49.13v14.56h-100.94v-51c0-25.96,21.04-47,47-47h0Z"/>
  </g>
  <g>
    <rect x="1592.9" y="481.05" width="30.16" height="156.22"/>
    <rect x="1639.33" y="481.05" width="30.16" height="78.87"/>
    <rect x="1616.12" y="457.84" width="30.16" height="76.59" transform="translate(2127.33 -1135.06) rotate(90)"/>
    <rect x="1662.55" y="506.55" width="30.16" height="76.59" transform="translate(2222.47 -1132.78) rotate(90)"/>
    <rect x="1755.11" y="507.19" width="30.16" height="75.3" transform="translate(2315.04 -1225.35) rotate(90)"/>
    <rect x="1708.75" y="458.23" width="30.16" height="75.8" transform="translate(2219.96 -1227.69) rotate(90)"/>
    <rect x="1801.84" y="457.54" width="30.16" height="76.59" transform="translate(2312.75 -1321.09) rotate(90)"/>
    <rect x="1685.76" y="481.05" width="30.16" height="78.87"/>
    <rect x="1732.19" y="481.05" width="30.16" height="78.87"/>
    <rect x="1778.63" y="481.05" width="30.16" height="78.87"/>
    <polygon points="1738.63 686.43 1723.81 712.7 1592.9 637.28 1592.84 604.23 1738.63 686.43"/>
    <polygon points="1708.96 686.43 1723.77 712.7 1855.22 635.14 1855.25 603.95 1708.96 686.43"/>
    <rect x="1679.24" y="570.52" width="30.16" height="85.65" transform="translate(1992.22 2390.47) rotate(-119.42)"/>
    <rect x="1739.06" y="570.48" width="30.16" height="85.78" transform="translate(358.3 1840.1) rotate(-60.58)"/>
    <rect x="1825.06" y="481.05" width="30.16" height="153.86"/>
  </g>
  <polygon points="1607.98 496.13 1654.41 496.13 1654.41 544.84 1700.84 544.84 1700.84 495.83 1747.27 495.83 1747.27 544.84 1793.71 544.84 1793.71 495.83 1840.14 495.83 1840.14 623.56 1793.74 649.96 1724.06 603.56 1654.32 649.87 1607.98 623.56 1607.98 496.13"/>
  <text class="cls-3" transform="translate(1909.21 1209.9)"><tspan class="cls-8" x="0" y="0">F</tspan><tspan x="83.41" y="0">o</tspan><tspan class="cls-7" x="175.05" y="0">r</tspan><tspan class="cls-5" x="240.91" y="0">t</tspan><tspan x="301.02" y="0">i</tspan><tspan class="cls-6" x="345.28" y="0">f</tspan><tspan x="406.17" y="0">y</tspan></text>
  <text class="cls-3" transform="translate(1978.87 1855.28)"><tspan class="cls-8" x="0" y="0">F</tspan><tspan x="83.41" y="0">o</tspan><tspan class="cls-7" x="175.05" y="0">r</tspan><tspan class="cls-5" x="240.91" y="0">t</tspan><tspan x="301.02" y="0">i</tspan><tspan class="cls-6" x="345.28" y="0">f</tspan><tspan x="406.17" y="0">y</tspan></text>
  <g>
    <rect x="1585.4" y="1067.39" width="30.16" height="156.22"/>
    <rect x="1631.83" y="1067.39" width="30.16" height="78.87"/>
    <rect x="1608.62" y="1044.17" width="30.16" height="76.59" transform="translate(2706.17 -541.23) rotate(90)"/>
    <rect x="1655.05" y="1092.89" width="30.16" height="76.59" transform="translate(2801.31 -538.95) rotate(90)"/>
    <rect x="1747.62" y="1093.53" width="30.16" height="75.3" transform="translate(2893.87 -631.51) rotate(90)"/>
    <rect x="1701.25" y="1044.57" width="30.16" height="75.8" transform="translate(2798.79 -633.86) rotate(90)"/>
    <rect x="1794.34" y="1043.88" width="30.16" height="76.59" transform="translate(2891.59 -727.25) rotate(90)"/>
    <rect x="1678.26" y="1067.39" width="30.16" height="78.87"/>
    <rect x="1724.7" y="1067.39" width="30.16" height="78.87"/>
    <rect x="1771.13" y="1067.39" width="30.16" height="78.87"/>
    <polygon points="1731.13 1272.77 1716.31 1299.04 1585.4 1223.62 1585.34 1190.57 1731.13 1272.77"/>
    <polygon points="1701.46 1272.77 1716.27 1299.04 1847.72 1221.47 1847.75 1190.29 1701.46 1272.77"/>
    <rect x="1671.75" y="1186.86" width="30.16" height="85.65" transform="translate(1444.16 3302.99) rotate(-119.42)"/>
    <rect x="1731.56" y="1186.82" width="30.16" height="85.78" transform="translate(-182.39 2147.2) rotate(-60.58)"/>
    <rect x="1817.56" y="1067.39" width="30.16" height="153.86"/>
  </g>
  <g>
    <path d="M2995.9,390.24v35.26s36.73,48.46,40.44,57.01h0c0,3.12-1.6,6.03-4.24,7.69l-4.14,2.61h27.56l1.92,1.92v21.15h-126.93v-23.08c5.23,0,11.69,0,13.71-.04l47.76-67.27v-35.26h3.91Z"/>
    <polygon points="3020.01 390.24 3018.73 395.36 3046.94 395.36 3041.79 402.4 3046.94 406.9 3009.76 406.9 3009.77 400.57 3001.34 400.57 3000.78 390.24 3020.01 390.24"/>
    <path d="M3033.03,588.12h0v111.33h-78.14v-33.2c0-43.13,35.01-78.14,78.14-78.14Z"/>
    <rect x="2971.54" y="512.67" width="44.88" height="134.58" transform="translate(3573.94 -2414.02) rotate(90)"/>
    <rect x="2982.76" y="620.94" width="22.44" height="134.58" transform="translate(3682.21 -2305.75) rotate(90)"/>
    <path d="M2944.76,524.19h15.7v36.08c0,6.76-5.49,12.25-12.25,12.25h-3.46v-48.33h0Z" transform="translate(5905.23 1096.71) rotate(-180)"/>
    <rect x="2972.34" y="524.19" width="15.7" height="48.33" transform="translate(5960.38 1096.71) rotate(180)"/>
    <rect x="2999.92" y="524.19" width="15.7" height="48.33" transform="translate(6015.54 1096.71) rotate(180)"/>
    <rect x="3027.5" y="524.19" width="15.7" height="48.33" transform="translate(6070.69 1096.71) rotate(180)"/>
  </g>
</svg>